{"title":"Trance 2013 1080p x264 AC3 - alrmothe","uid":8664319,"size":7809933566,"categoryP":"video","categoryS":"hd___movies","magnet":"?xt=urn:btih:215ef771fb3a1c306a3e7d59920d2e9f3f454eb0&amp;dn=Trance+2013+1080p+x264+AC3+-+alrmothe&amp;tr=udp%3A%2F%2Ftracker.openbittorrent.com%3A80&amp;tr=udp%3A%2F%2Fopen.demonii.com%3A1337&amp;tr=udp%3A%2F%2Ftracker.coppersurfer.tk%3A6969&amp;tr=udp%3A%2F%2Fexodus.desync.com%3A6969","seeders":1,"leechers":0,"uploader":".alrmothe","files":20,"time":1373380367,"description":"***************************************************************\n\nTrance 2013 1080p x264 AC3 - alrmothe\n\n***************************************************************\n\nTitle : Trance\nYEAR: 2013\nGENRE : Crime | Drama | Mystery     \nimdb URL :http://www.imdb.com/title/tt1924429/\nFormat: Matroska\nOverall bit rate:10.3 Mbps\nFormat version: Version 4 / Version 2\nFile size:  7.27 GiB\nDuration:1h 41mn \n\n***************************************************************\n\nVideo\nFormat : AVC \nFormat/Info : Advanced Video Codec \nFormat profile : &lt;a class=&quot;__cf_email__&quot; href=&quot;/cdn-cgi/l/email-protection&quot; data-cfemail=&quot;6b23020c032b275f455a&quot;&gt;[email&amp;#160;protected]&lt;/a&gt;&lt;script cf-hash='f9e31' type=&quot;text/javascript&quot;&gt;\n/* &lt;![CDATA[ */!function(){try{var t=&quot;currentScript&quot;in document?document.currentScript:function(){for(var t=document.getElementsByTagName(&quot;script&quot;),e=t.length;e--;)if(t[e].getAttribute(&quot;cf-hash&quot;))return t[e]}();if(t&amp;&amp;t.previousSibling){var e,r,n,i,c=t.previousSibling,a=c.getAttribute(&quot;data-cfemail&quot;);if(a){for(e=&quot;&quot;,r=parseInt(a.substr(0,2),16),n=2;a.length-n;n+=2)i=parseInt(a.substr(n,2),16)^r,e+=String.fromCharCode(i);e=document.createTextNode(e),c.parentNode.replaceChild(e,c)}}}catch(u){}}();/* ]]&gt; */&lt;/script&gt; \nFormat settings, CABAC : Yes \nFormat settings, ReFrames : 4 frames  \nCodec ID : V_MPEG4/ISO/AVC  \nBit rate :9600 Kbps \nWidth : 1920 pixels \nHeight :800 pixels \nDisplay aspect ratio : 2.40:1 \nFrame rate : 25 fps \nColor space : YUV \nChroma subsampling : 4:2:0 \nBit depth : 8 bits \nScan type : Progressive \nBits/(Pixel*Frame) : 0.261 \nStream size: 6.68 GiB \n\n\nAudio#1 \nFormat: AC3\nBit rate :640 Kbps\nChannel(s) : 6 channels\nChannel positions:Front: L C R, Side: L R, LFE\nSampling rate: 48.0 KHz\nBit depth: 16bits\nCompression mode: Lossy\nStream size: 464 MiB\nLanguage : English\n\n\nsub : Arabic,English\n\n***************************************************************\n\nScreenshots\n &lt;a href=&quot;\nhttp://img845.imageshack.us/img845/1341/f3n2.png&quot; rel=&quot;nofollow&quot; target=&quot;_NEW&quot;&gt;\nhttp://img845.imageshack.us/img845/1341/f3n2.png&lt;/a&gt; &lt;a href=&quot;\nhttp://img199.imageshack.us/img199/5784/ceth.png&quot; rel=&quot;nofollow&quot; target=&quot;_NEW&quot;&gt;\nhttp://img199.imageshack.us/img199/5784/ceth.png&lt;/a&gt; &lt;a href=&quot;\nhttp://img543.imageshack.us/img543/2146/y4b.png&quot; rel=&quot;nofollow&quot; target=&quot;_NEW&quot;&gt;\nhttp://img543.imageshack.us/img543/2146/y4b.png&lt;/a&gt; &lt;a href=&quot;\nhttp://img580.imageshack.us/img580/1220/vxmi.png&quot; rel=&quot;nofollow&quot; target=&quot;_NEW&quot;&gt;\nhttp://img580.imageshack.us/img580/1220/vxmi.png&lt;/a&gt; &lt;a href=&quot;\nhttp://img690.imageshack.us/img690/6869/2dh.png&quot; rel=&quot;nofollow&quot; target=&quot;_NEW&quot;&gt;\nhttp://img690.imageshack.us/img690/6869/2dh.png&lt;/a&gt; &lt;a href=&quot;\nhttp://img834.imageshack.us/img834/6226/su40.png&quot; rel=&quot;nofollow&quot; target=&quot;_NEW&quot;&gt;\nhttp://img834.imageshack.us/img834/6226/su40.png&lt;/a&gt;\n\n\n","torrent":{"xt":"urn:btih:215ef771fb3a1c306a3e7d59920d2e9f3f454eb0","amp;dn":"Trance+2013+1080p+x264+AC3+-+alrmothe","amp;tr":["udp%3A%2F%2Ftracker.openbittorrent.com%3A80","udp%3A%2F%2Fopen.demonii.com%3A1337","udp%3A%2F%2Ftracker.coppersurfer.tk%3A6969","udp%3A%2F%2Fexodus.desync.com%3A6969"],"infoHash":"215ef771fb3a1c306a3e7d59920d2e9f3f454eb0","infoHashBuffer":{"type":"Buffer","data":[33,94,247,113,251,58,28,48,106,62,125,89,146,13,46,159,63,69,78,176]},"announce":[],"urlList":[]}}